<?xml version="1.0" encoding="us-ascii" standalone="no"?><svg xmlns="http://www.w3.org/2000/svg" xmlns:xlink="http://www.w3.org/1999/xlink" contentStyleType="text/css" height="1021px" preserveAspectRatio="none" style="width:1107px;height:1021px;background:#FFFFFF;" version="1.1" viewBox="0 0 1107 1021" width="1107px" zoomAndPan="magnify"><defs/><g><!--class User--><g id="elem_User"><rect codeLine="3" fill="#F1F1F1" height="224.0938" id="User" rx="2.5" ry="2.5" style="stroke:#181818;stroke-width:0.5;" width="90" x="576.5" y="7"/><ellipse cx="604.55" cy="23" fill="#ADD1B2" rx="11" ry="11" style="stroke:#181818;stroke-width:1.0;"/><path d="M603.4094,23.7969 L603.4094,26.2969 L607.7375,26.2969 L607.7375,25.375 Q607.7375,24.7656 607.9797,24.5 Q608.2219,24.2344 608.5969,24.2344 Q608.9719,24.2344 609.2063,24.5 Q609.4406,24.7656 609.4406,25.375 L609.4406,28 L601.4406,28 Q600.8156,28 600.5578,27.7656 Q600.3,27.5313 600.3,27.1406 Q600.3,26.7656 600.5656,26.5313 Q600.8313,26.2969 601.4406,26.2969 L601.7063,26.2969 L601.7063,19.6406 L601.4406,19.6406 Q600.8156,19.6406 600.5578,19.4063 Q600.3,19.1719 600.3,18.7813 Q600.3,18.4063 600.5578,18.1719 Q600.8156,17.9375 601.4406,17.9375 L609.0656,17.9375 L609.0656,20.5313 Q609.0656,21.1406 608.8391,21.3984 Q608.6125,21.6563 608.2219,21.6563 Q607.8469,21.6563 607.6125,21.3984 Q607.3781,21.1406 607.3781,20.5313 L607.3781,19.6406 L603.4094,19.6406 L603.4094,22.0938 L604.8938,22.0938 Q604.8938,21.4375 605.0188,21.25 Q605.2844,20.8438 605.7531,20.8438 Q606.1281,20.8438 606.3625,21.1016 Q606.5969,21.3594 606.5969,21.9688 L606.5969,23.9375 Q606.5969,24.4844 606.4719,24.6719 Q606.2063,25.0625 605.7531,25.0625 Q605.2844,25.0625 605.0188,24.6563 Q604.8938,24.4688 604.8938,23.7969 L603.4094,23.7969 Z " fill="#000000"/><text fill="#000000" font-family="sans-serif" font-size="14" lengthAdjust="spacing" textLength="29" x="621.45" y="28.7285">User</text><line style="stroke:#181818;stroke-width:0.5;" x1="577.5" x2="665.5" y1="39" y2="39"/><text fill="#000000" font-family="sans-serif" font-size="14" lengthAdjust="spacing" textLength="36" x="582.5" y="57.5332">Name</text><text fill="#000000" font-family="sans-serif" font-size="14" lengthAdjust="spacing" textLength="34" x="582.5" y="75.1426">Email</text><text fill="#000000" font-family="sans-serif" font-size="14" lengthAdjust="spacing" textLength="61" x="582.5" y="92.752">Password</text><text fill="#000000" font-family="sans-serif" font-size="14" lengthAdjust="spacing" textLength="78" x="582.5" y="110.3613">ProfileImage</text><text fill="#000000" font-family="sans-serif" font-size="14" lengthAdjust="spacing" textLength="20" x="582.5" y="127.9707">Bio</text><text fill="#000000" font-family="sans-serif" font-size="14" lengthAdjust="spacing" textLength="32" x="582.5" y="145.5801">Skills</text><text fill="#000000" font-family="sans-serif" font-size="14" lengthAdjust="spacing" textLength="54" x="582.5" y="163.1895">Location</text><text fill="#000000" font-family="sans-serif" font-size="14" lengthAdjust="spacing" textLength="64" x="582.5" y="180.7988">CreatedAt</text><text fill="#000000" font-family="sans-serif" font-size="14" lengthAdjust="spacing" textLength="66" x="582.5" y="198.4082">UpdatedAt</text><line style="stroke:#181818;stroke-width:0.5;" x1="577.5" x2="665.5" y1="205.4844" y2="205.4844"/><text fill="#000000" font-family="sans-serif" font-size="14" lengthAdjust="spacing" textLength="74" x="582.5" y="224.0176">UserID (PK)</text></g><!--class Project--><g id="elem_Project"><rect codeLine="16" fill="#F1F1F1" height="224.0938" id="Project" rx="2.5" ry="2.5" style="stroke:#181818;stroke-width:0.5;" width="160" x="542.5" y="309"/><ellipse cx="596.25" cy="325" fill="#ADD1B2" rx="11" ry="11" style="stroke:#181818;stroke-width:1.0;"/><path d="M595.1094,325.7969 L595.1094,328.2969 L599.4375,328.2969 L599.4375,327.375 Q599.4375,326.7656 599.6797,326.5 Q599.9219,326.2344 600.2969,326.2344 Q600.6719,326.2344 600.9063,326.5 Q601.1406,326.7656 601.1406,327.375 L601.1406,330 L593.1406,330 Q592.5156,330 592.2578,329.7656 Q592,329.5313 592,329.1406 Q592,328.7656 592.2656,328.5313 Q592.5313,328.2969 593.1406,328.2969 L593.4063,328.2969 L593.4063,321.6406 L593.1406,321.6406 Q592.5156,321.6406 592.2578,321.4063 Q592,321.1719 592,320.7813 Q592,320.4063 592.2578,320.1719 Q592.5156,319.9375 593.1406,319.9375 L600.7656,319.9375 L600.7656,322.5313 Q600.7656,323.1406 600.5391,323.3984 Q600.3125,323.6563 599.9219,323.6563 Q599.5469,323.6563 599.3125,323.3984 Q599.0781,323.1406 599.0781,322.5313 L599.0781,321.6406 L595.1094,321.6406 L595.1094,324.0938 L596.5938,324.0938 Q596.5938,323.4375 596.7188,323.25 Q596.9844,322.8438 597.4531,322.8438 Q597.8281,322.8438 598.0625,323.1016 Q598.2969,323.3594 598.2969,323.9688 L598.2969,325.9375 Q598.2969,326.4844 598.1719,326.6719 Q597.9063,327.0625 597.4531,327.0625 Q596.9844,327.0625 596.7188,326.6563 Q596.5938,326.4688 596.5938,325.7969 L595.1094,325.7969 Z " fill="#000000"/><text fill="#000000" font-family="sans-serif" font-size="14" lengthAdjust="spacing" textLength="44" x="616.75" y="330.7285">Project</text><line style="stroke:#181818;stroke-width:0.5;" x1="543.5" x2="701.5" y1="341" y2="341"/><text fill="#000000" font-family="sans-serif" font-size="14" lengthAdjust="spacing" textLength="27" x="548.5" y="359.5332">Title</text><text fill="#000000" font-family="sans-serif" font-size="14" lengthAdjust="spacing" textLength="71" x="548.5" y="377.1426">Description</text><text fill="#000000" font-family="sans-serif" font-size="14" lengthAdjust="spacing" textLength="58" x="548.5" y="394.752">Category</text><text fill="#000000" font-family="sans-serif" font-size="14" lengthAdjust="spacing" textLength="60" x="548.5" y="412.3613">StartDate</text><text fill="#000000" font-family="sans-serif" font-size="14" lengthAdjust="spacing" textLength="55" x="548.5" y="429.9707">EndDate</text><text fill="#000000" font-family="sans-serif" font-size="14" lengthAdjust="spacing" textLength="40" x="548.5" y="447.5801">Status</text><text fill="#000000" font-family="sans-serif" font-size="14" lengthAdjust="spacing" textLength="64" x="548.5" y="465.1895">CreatedAt</text><text fill="#000000" font-family="sans-serif" font-size="14" lengthAdjust="spacing" textLength="66" x="548.5" y="482.7988">UpdatedAt</text><line style="stroke:#181818;stroke-width:0.5;" x1="543.5" x2="701.5" y1="489.875" y2="489.875"/><text fill="#000000" font-family="sans-serif" font-size="14" lengthAdjust="spacing" textLength="89" x="548.5" y="508.4082">ProjectID (PK)</text><text fill="#000000" font-family="sans-serif" font-size="14" lengthAdjust="spacing" textLength="148" x="548.5" y="526.0176">CreatedBy (FK to User)</text></g><!--class ProjectImage--><g id="elem_ProjectImage"><rect codeLine="29" fill="#F1F1F1" height="136.0469" id="ProjectImage" rx="2.5" ry="2.5" style="stroke:#181818;stroke-width:0.5;" width="169" x="7" y="637.5"/><ellipse cx="46.75" cy="653.5" fill="#ADD1B2" rx="11" ry="11" style="stroke:#181818;stroke-width:1.0;"/><path d="M45.6094,654.2969 L45.6094,656.7969 L49.9375,656.7969 L49.9375,655.875 Q49.9375,655.2656 50.1797,655 Q50.4219,654.7344 50.7969,654.7344 Q51.1719,654.7344 51.4063,655 Q51.6406,655.2656 51.6406,655.875 L51.6406,658.5 L43.6406,658.5 Q43.0156,658.5 42.7578,658.2656 Q42.5,658.0313 42.5,657.6406 Q42.5,657.2656 42.7656,657.0313 Q43.0313,656.7969 43.6406,656.7969 L43.9063,656.7969 L43.9063,650.1406 L43.6406,650.1406 Q43.0156,650.1406 42.7578,649.9063 Q42.5,649.6719 42.5,649.2813 Q42.5,648.9063 42.7578,648.6719 Q43.0156,648.4375 43.6406,648.4375 L51.2656,648.4375 L51.2656,651.0313 Q51.2656,651.6406 51.0391,651.8984 Q50.8125,652.1563 50.4219,652.1563 Q50.0469,652.1563 49.8125,651.8984 Q49.5781,651.6406 49.5781,651.0313 L49.5781,650.1406 L45.6094,650.1406 L45.6094,652.5938 L47.0938,652.5938 Q47.0938,651.9375 47.2188,651.75 Q47.4844,651.3438 47.9531,651.3438 Q48.3281,651.3438 48.5625,651.6016 Q48.7969,651.8594 48.7969,652.4688 L48.7969,654.4375 Q48.7969,654.9844 48.6719,655.1719 Q48.4063,655.5625 47.9531,655.5625 Q47.4844,655.5625 47.2188,655.1563 Q47.0938,654.9688 47.0938,654.2969 L45.6094,654.2969 Z " fill="#000000"/><text fill="#000000" font-family="sans-serif" font-size="14" lengthAdjust="spacing" textLength="82" x="66.25" y="659.2285">ProjectImage</text><line style="stroke:#181818;stroke-width:0.5;" x1="8" x2="175" y1="669.5" y2="669.5"/><text fill="#000000" font-family="sans-serif" font-size="14" lengthAdjust="spacing" textLength="65" x="13" y="688.0332">ImageURL</text><text fill="#000000" font-family="sans-serif" font-size="14" lengthAdjust="spacing" textLength="73" x="13" y="705.6426">UploadedAt</text><line style="stroke:#181818;stroke-width:0.5;" x1="8" x2="175" y1="712.7188" y2="712.7188"/><text fill="#000000" font-family="sans-serif" font-size="14" lengthAdjust="spacing" textLength="83" x="13" y="731.252">ImageID (PK)</text><text fill="#000000" font-family="sans-serif" font-size="14" lengthAdjust="spacing" textLength="157" x="13" y="748.8613">UploadedBy (FK to User)</text><text fill="#000000" font-family="sans-serif" font-size="14" lengthAdjust="spacing" textLength="153" x="13" y="766.4707">ProjectID (FK to Project)</text></g><!--class Invitation--><g id="elem_Invitation"><rect codeLine="37" fill="#F1F1F1" height="171.2656" id="Invitation" rx="2.5" ry="2.5" style="stroke:#181818;stroke-width:0.5;" width="165" x="864" y="620"/><ellipse cx="914.25" cy="636" fill="#ADD1B2" rx="11" ry="11" style="stroke:#181818;stroke-width:1.0;"/><path d="M913.1094,636.7969 L913.1094,639.2969 L917.4375,639.2969 L917.4375,638.375 Q917.4375,637.7656 917.6797,637.5 Q917.9219,637.2344 918.2969,637.2344 Q918.6719,637.2344 918.9063,637.5 Q919.1406,637.7656 919.1406,638.375 L919.1406,641 L911.1406,641 Q910.5156,641 910.2578,640.7656 Q910,640.5313 910,640.1406 Q910,639.7656 910.2656,639.5313 Q910.5313,639.2969 911.1406,639.2969 L911.4063,639.2969 L911.4063,632.6406 L911.1406,632.6406 Q910.5156,632.6406 910.2578,632.4063 Q910,632.1719 910,631.7813 Q910,631.4063 910.2578,631.1719 Q910.5156,630.9375 911.1406,630.9375 L918.7656,630.9375 L918.7656,633.5313 Q918.7656,634.1406 918.5391,634.3984 Q918.3125,634.6563 917.9219,634.6563 Q917.5469,634.6563 917.3125,634.3984 Q917.0781,634.1406 917.0781,633.5313 L917.0781,632.6406 L913.1094,632.6406 L913.1094,635.0938 L914.5938,635.0938 Q914.5938,634.4375 914.7188,634.25 Q914.9844,633.8438 915.4531,633.8438 Q915.8281,633.8438 916.0625,634.1016 Q916.2969,634.3594 916.2969,634.9688 L916.2969,636.9375 Q916.2969,637.4844 916.1719,637.6719 Q915.9063,638.0625 915.4531,638.0625 Q914.9844,638.0625 914.7188,637.6563 Q914.5938,637.4688 914.5938,636.7969 L913.1094,636.7969 Z " fill="#000000"/><text fill="#000000" font-family="sans-serif" font-size="14" lengthAdjust="spacing" textLength="56" x="934.75" y="641.7285">Invitation</text><line style="stroke:#181818;stroke-width:0.5;" x1="865" x2="1028" y1="652" y2="652"/><text fill="#000000" font-family="sans-serif" font-size="14" lengthAdjust="spacing" textLength="40" x="870" y="670.5332">Status</text><text fill="#000000" font-family="sans-serif" font-size="14" lengthAdjust="spacing" textLength="42" x="870" y="688.1426">SentAt</text><text fill="#000000" font-family="sans-serif" font-size="14" lengthAdjust="spacing" textLength="86" x="870" y="705.752">RespondedAt</text><line style="stroke:#181818;stroke-width:0.5;" x1="865" x2="1028" y1="712.8281" y2="712.8281"/><text fill="#000000" font-family="sans-serif" font-size="14" lengthAdjust="spacing" textLength="101" x="870" y="731.3613">InvitationID (PK)</text><text fill="#000000" font-family="sans-serif" font-size="14" lengthAdjust="spacing" textLength="153" x="870" y="748.9707">ProjectID (FK to Project)</text><text fill="#000000" font-family="sans-serif" font-size="14" lengthAdjust="spacing" textLength="140" x="870" y="766.5801">SenderID (FK to User)</text><text fill="#000000" font-family="sans-serif" font-size="14" lengthAdjust="spacing" textLength="150" x="870" y="784.1895">ReceiverID (FK to User)</text></g><!--class BrainstormSession--><g id="elem_BrainstormSession"><rect codeLine="47" fill="#F1F1F1" height="171.2656" id="BrainstormSession" rx="2.5" ry="2.5" style="stroke:#181818;stroke-width:0.5;" width="160" x="468.5" y="620"/><ellipse cx="488" cy="636" fill="#ADD1B2" rx="11" ry="11" style="stroke:#181818;stroke-width:1.0;"/><path d="M486.8594,636.7969 L486.8594,639.2969 L491.1875,639.2969 L491.1875,638.375 Q491.1875,637.7656 491.4297,637.5 Q491.6719,637.2344 492.0469,637.2344 Q492.4219,637.2344 492.6563,637.5 Q492.8906,637.7656 492.8906,638.375 L492.8906,641 L484.8906,641 Q484.2656,641 484.0078,640.7656 Q483.75,640.5313 483.75,640.1406 Q483.75,639.7656 484.0156,639.5313 Q484.2813,639.2969 484.8906,639.2969 L485.1563,639.2969 L485.1563,632.6406 L484.8906,632.6406 Q484.2656,632.6406 484.0078,632.4063 Q483.75,632.1719 483.75,631.7813 Q483.75,631.4063 484.0078,631.1719 Q484.2656,630.9375 484.8906,630.9375 L492.5156,630.9375 L492.5156,633.5313 Q492.5156,634.1406 492.2891,634.3984 Q492.0625,634.6563 491.6719,634.6563 Q491.2969,634.6563 491.0625,634.3984 Q490.8281,634.1406 490.8281,633.5313 L490.8281,632.6406 L486.8594,632.6406 L486.8594,635.0938 L488.3438,635.0938 Q488.3438,634.4375 488.4688,634.25 Q488.7344,633.8438 489.2031,633.8438 Q489.5781,633.8438 489.8125,634.1016 Q490.0469,634.3594 490.0469,634.9688 L490.0469,636.9375 Q490.0469,637.4844 489.9219,637.6719 Q489.6563,638.0625 489.2031,638.0625 Q488.7344,638.0625 488.4688,637.6563 Q488.3438,637.4688 488.3438,636.7969 L486.8594,636.7969 Z " fill="#000000"/><text fill="#000000" font-family="sans-serif" font-size="14" lengthAdjust="spacing" textLength="118" x="503" y="641.7285">BrainstormSession</text><line style="stroke:#181818;stroke-width:0.5;" x1="469.5" x2="627.5" y1="652" y2="652"/><text fill="#000000" font-family="sans-serif" font-size="14" lengthAdjust="spacing" textLength="27" x="474.5" y="670.5332">Title</text><text fill="#000000" font-family="sans-serif" font-size="14" lengthAdjust="spacing" textLength="71" x="474.5" y="688.1426">Description</text><text fill="#000000" font-family="sans-serif" font-size="14" lengthAdjust="spacing" textLength="100" x="474.5" y="705.752">WhiteboardURL</text><text fill="#000000" font-family="sans-serif" font-size="14" lengthAdjust="spacing" textLength="64" x="474.5" y="723.3613">CreatedAt</text><text fill="#000000" font-family="sans-serif" font-size="14" lengthAdjust="spacing" textLength="66" x="474.5" y="740.9707">UpdatedAt</text><line style="stroke:#181818;stroke-width:0.5;" x1="469.5" x2="627.5" y1="748.0469" y2="748.0469"/><text fill="#000000" font-family="sans-serif" font-size="14" lengthAdjust="spacing" textLength="95" x="474.5" y="766.5801">SessionID (PK)</text><text fill="#000000" font-family="sans-serif" font-size="14" lengthAdjust="spacing" textLength="148" x="474.5" y="784.1895">CreatedBy (FK to User)</text></g><!--class Filter--><g id="elem_Filter"><rect codeLine="57" fill="#F1F1F1" height="118.4375" id="Filter" rx="2.5" ry="2.5" style="stroke:#181818;stroke-width:0.5;" width="165" x="664" y="646.5"/><ellipse cx="726.25" cy="662.5" fill="#ADD1B2" rx="11" ry="11" style="stroke:#181818;stroke-width:1.0;"/><path d="M725.1094,663.2969 L725.1094,665.7969 L729.4375,665.7969 L729.4375,664.875 Q729.4375,664.2656 729.6797,664 Q729.9219,663.7344 730.2969,663.7344 Q730.6719,663.7344 730.9063,664 Q731.1406,664.2656 731.1406,664.875 L731.1406,667.5 L723.1406,667.5 Q722.5156,667.5 722.2578,667.2656 Q722,667.0313 722,666.6406 Q722,666.2656 722.2656,666.0313 Q722.5313,665.7969 723.1406,665.7969 L723.4063,665.7969 L723.4063,659.1406 L723.1406,659.1406 Q722.5156,659.1406 722.2578,658.9063 Q722,658.6719 722,658.2813 Q722,657.9063 722.2578,657.6719 Q722.5156,657.4375 723.1406,657.4375 L730.7656,657.4375 L730.7656,660.0313 Q730.7656,660.6406 730.5391,660.8984 Q730.3125,661.1563 729.9219,661.1563 Q729.5469,661.1563 729.3125,660.8984 Q729.0781,660.6406 729.0781,660.0313 L729.0781,659.1406 L725.1094,659.1406 L725.1094,661.5938 L726.5938,661.5938 Q726.5938,660.9375 726.7188,660.75 Q726.9844,660.3438 727.4531,660.3438 Q727.8281,660.3438 728.0625,660.6016 Q728.2969,660.8594 728.2969,661.4688 L728.2969,663.4375 Q728.2969,663.9844 728.1719,664.1719 Q727.9063,664.5625 727.4531,664.5625 Q726.9844,664.5625 726.7188,664.1563 Q726.5938,663.9688 726.5938,663.2969 L725.1094,663.2969 Z " fill="#000000"/><text fill="#000000" font-family="sans-serif" font-size="14" lengthAdjust="spacing" textLength="32" x="746.75" y="668.2285">Filter</text><line style="stroke:#181818;stroke-width:0.5;" x1="665" x2="828" y1="678.5" y2="678.5"/><text fill="#000000" font-family="sans-serif" font-size="14" lengthAdjust="spacing" textLength="68" x="670" y="697.0332">FilterName</text><text fill="#000000" font-family="sans-serif" font-size="14" lengthAdjust="spacing" textLength="78" x="670" y="714.6426">FilterCriteria</text><line style="stroke:#181818;stroke-width:0.5;" x1="665" x2="828" y1="721.7188" y2="721.7188"/><text fill="#000000" font-family="sans-serif" font-size="14" lengthAdjust="spacing" textLength="77" x="670" y="740.252">FilterID (PK)</text><text fill="#000000" font-family="sans-serif" font-size="14" lengthAdjust="spacing" textLength="153" x="670" y="757.8613">ProjectID (FK to Project)</text></g><!--class Notification--><g id="elem_Notification"><rect codeLine="64" fill="#F1F1F1" height="136.0469" id="Notification" rx="2.5" ry="2.5" style="stroke:#181818;stroke-width:0.5;" width="135" x="738" y="353"/><ellipse cx="768.3" cy="369" fill="#ADD1B2" rx="11" ry="11" style="stroke:#181818;stroke-width:1.0;"/><path d="M767.1594,369.7969 L767.1594,372.2969 L771.4875,372.2969 L771.4875,371.375 Q771.4875,370.7656 771.7297,370.5 Q771.9719,370.2344 772.3469,370.2344 Q772.7219,370.2344 772.9563,370.5 Q773.1906,370.7656 773.1906,371.375 L773.1906,374 L765.1906,374 Q764.5656,374 764.3078,373.7656 Q764.05,373.5313 764.05,373.1406 Q764.05,372.7656 764.3156,372.5313 Q764.5813,372.2969 765.1906,372.2969 L765.4563,372.2969 L765.4563,365.6406 L765.1906,365.6406 Q764.5656,365.6406 764.3078,365.4063 Q764.05,365.1719 764.05,364.7813 Q764.05,364.4063 764.3078,364.1719 Q764.5656,363.9375 765.1906,363.9375 L772.8156,363.9375 L772.8156,366.5313 Q772.8156,367.1406 772.5891,367.3984 Q772.3625,367.6563 771.9719,367.6563 Q771.5969,367.6563 771.3625,367.3984 Q771.1281,367.1406 771.1281,366.5313 L771.1281,365.6406 L767.1594,365.6406 L767.1594,368.0938 L768.6438,368.0938 Q768.6438,367.4375 768.7688,367.25 Q769.0344,366.8438 769.5031,366.8438 Q769.8781,366.8438 770.1125,367.1016 Q770.3469,367.3594 770.3469,367.9688 L770.3469,369.9375 Q770.3469,370.4844 770.2219,370.6719 Q769.9563,371.0625 769.5031,371.0625 Q769.0344,371.0625 768.7688,370.6563 Q768.6438,370.4688 768.6438,369.7969 L767.1594,369.7969 Z " fill="#000000"/><text fill="#000000" font-family="sans-serif" font-size="14" lengthAdjust="spacing" textLength="69" x="785.7" y="374.7285">Notification</text><line style="stroke:#181818;stroke-width:0.5;" x1="739" x2="872" y1="385" y2="385"/><text fill="#000000" font-family="sans-serif" font-size="14" lengthAdjust="spacing" textLength="50" x="744" y="403.5332">Content</text><text fill="#000000" font-family="sans-serif" font-size="14" lengthAdjust="spacing" textLength="44" x="744" y="421.1426">IsRead</text><text fill="#000000" font-family="sans-serif" font-size="14" lengthAdjust="spacing" textLength="64" x="744" y="438.752">CreatedAt</text><line style="stroke:#181818;stroke-width:0.5;" x1="739" x2="872" y1="445.8281" y2="445.8281"/><text fill="#000000" font-family="sans-serif" font-size="14" lengthAdjust="spacing" textLength="114" x="744" y="464.3613">NotificationID (PK)</text><text fill="#000000" font-family="sans-serif" font-size="14" lengthAdjust="spacing" textLength="123" x="744" y="481.9707">UserID (FK to User)</text></g><!--class Settings--><g id="elem_Settings"><rect codeLine="72" fill="#F1F1F1" height="188.875" id="Settings" rx="2.5" ry="2.5" style="stroke:#181818;stroke-width:0.5;" width="222" x="211.5" y="611"/><ellipse cx="292.75" cy="627" fill="#ADD1B2" rx="11" ry="11" style="stroke:#181818;stroke-width:1.0;"/><path d="M291.6094,627.7969 L291.6094,630.2969 L295.9375,630.2969 L295.9375,629.375 Q295.9375,628.7656 296.1797,628.5 Q296.4219,628.2344 296.7969,628.2344 Q297.1719,628.2344 297.4063,628.5 Q297.6406,628.7656 297.6406,629.375 L297.6406,632 L289.6406,632 Q289.0156,632 288.7578,631.7656 Q288.5,631.5313 288.5,631.1406 Q288.5,630.7656 288.7656,630.5313 Q289.0313,630.2969 289.6406,630.2969 L289.9063,630.2969 L289.9063,623.6406 L289.6406,623.6406 Q289.0156,623.6406 288.7578,623.4063 Q288.5,623.1719 288.5,622.7813 Q288.5,622.4063 288.7578,622.1719 Q289.0156,621.9375 289.6406,621.9375 L297.2656,621.9375 L297.2656,624.5313 Q297.2656,625.1406 297.0391,625.3984 Q296.8125,625.6563 296.4219,625.6563 Q296.0469,625.6563 295.8125,625.3984 Q295.5781,625.1406 295.5781,624.5313 L295.5781,623.6406 L291.6094,623.6406 L291.6094,626.0938 L293.0938,626.0938 Q293.0938,625.4375 293.2188,625.25 Q293.4844,624.8438 293.9531,624.8438 Q294.3281,624.8438 294.5625,625.1016 Q294.7969,625.3594 294.7969,625.9688 L294.7969,627.9375 Q294.7969,628.4844 294.6719,628.6719 Q294.4063,629.0625 293.9531,629.0625 Q293.4844,629.0625 293.2188,628.6563 Q293.0938,628.4688 293.0938,627.7969 L291.6094,627.7969 Z " fill="#000000"/><text fill="#000000" font-family="sans-serif" font-size="14" lengthAdjust="spacing" textLength="51" x="313.25" y="632.7285">Settings</text><line style="stroke:#181818;stroke-width:0.5;" x1="212.5" x2="432.5" y1="643" y2="643"/><text fill="#000000" font-family="sans-serif" font-size="14" lengthAdjust="spacing" textLength="128" x="217.5" y="661.5332">NotificationsEnabled</text><text fill="#000000" font-family="sans-serif" font-size="14" lengthAdjust="spacing" textLength="97" x="217.5" y="679.1426">PrivacySettings</text><text fill="#000000" font-family="sans-serif" font-size="14" lengthAdjust="spacing" textLength="134" x="217.5" y="696.752">LanguagePreference</text><text fill="#000000" font-family="sans-serif" font-size="14" lengthAdjust="spacing" textLength="64" x="217.5" y="714.3613">CreatedAt</text><text fill="#000000" font-family="sans-serif" font-size="14" lengthAdjust="spacing" textLength="66" x="217.5" y="731.9707">UpdatedAt</text><line style="stroke:#181818;stroke-width:0.5;" x1="212.5" x2="432.5" y1="739.0469" y2="739.0469"/><text fill="#000000" font-family="sans-serif" font-size="14" lengthAdjust="spacing" textLength="96" x="217.5" y="757.5801">SettingsID (PK)</text><text fill="#000000" font-family="sans-serif" font-size="14" lengthAdjust="spacing" textLength="123" x="217.5" y="775.1895">UserID (FK to User)</text><text fill="#000000" font-family="sans-serif" font-size="14" lengthAdjust="spacing" textLength="210" x="217.5" y="792.7988">ProjectID (FK to Project, nullable)</text></g><!--class Idea--><g id="elem_Idea"><rect codeLine="83" fill="#F1F1F1" height="136.0469" id="Idea" rx="2.5" ry="2.5" style="stroke:#181818;stroke-width:0.5;" width="313" x="659" y="878"/><ellipse cx="797.75" cy="894" fill="#ADD1B2" rx="11" ry="11" style="stroke:#181818;stroke-width:1.0;"/><path d="M796.6094,894.7969 L796.6094,897.2969 L800.9375,897.2969 L800.9375,896.375 Q800.9375,895.7656 801.1797,895.5 Q801.4219,895.2344 801.7969,895.2344 Q802.1719,895.2344 802.4063,895.5 Q802.6406,895.7656 802.6406,896.375 L802.6406,899 L794.6406,899 Q794.0156,899 793.7578,898.7656 Q793.5,898.5313 793.5,898.1406 Q793.5,897.7656 793.7656,897.5313 Q794.0313,897.2969 794.6406,897.2969 L794.9063,897.2969 L794.9063,890.6406 L794.6406,890.6406 Q794.0156,890.6406 793.7578,890.4063 Q793.5,890.1719 793.5,889.7813 Q793.5,889.4063 793.7578,889.1719 Q794.0156,888.9375 794.6406,888.9375 L802.2656,888.9375 L802.2656,891.5313 Q802.2656,892.1406 802.0391,892.3984 Q801.8125,892.6563 801.4219,892.6563 Q801.0469,892.6563 800.8125,892.3984 Q800.5781,892.1406 800.5781,891.5313 L800.5781,890.6406 L796.6094,890.6406 L796.6094,893.0938 L798.0938,893.0938 Q798.0938,892.4375 798.2188,892.25 Q798.4844,891.8438 798.9531,891.8438 Q799.3281,891.8438 799.5625,892.1016 Q799.7969,892.3594 799.7969,892.9688 L799.7969,894.9375 Q799.7969,895.4844 799.6719,895.6719 Q799.4063,896.0625 798.9531,896.0625 Q798.4844,896.0625 798.2188,895.6563 Q798.0938,895.4688 798.0938,894.7969 L796.6094,894.7969 Z " fill="#000000"/><text fill="#000000" font-family="sans-serif" font-size="14" lengthAdjust="spacing" textLength="27" x="818.25" y="899.7285">Idea</text><line style="stroke:#181818;stroke-width:0.5;" x1="660" x2="971" y1="910" y2="910"/><text fill="#000000" font-family="sans-serif" font-size="14" lengthAdjust="spacing" textLength="50" x="665" y="928.5332">Content</text><text fill="#000000" font-family="sans-serif" font-size="14" lengthAdjust="spacing" textLength="64" x="665" y="946.1426">CreatedAt</text><line style="stroke:#181818;stroke-width:0.5;" x1="660" x2="971" y1="953.2188" y2="953.2188"/><text fill="#000000" font-family="sans-serif" font-size="14" lengthAdjust="spacing" textLength="72" x="665" y="971.752">IdeaID (PK)</text><text fill="#000000" font-family="sans-serif" font-size="14" lengthAdjust="spacing" textLength="301" x="665" y="989.3613">BrainstormSessionID (FK to BrainstormSession)</text><text fill="#000000" font-family="sans-serif" font-size="14" lengthAdjust="spacing" textLength="148" x="665" y="1006.9707">CreatedBy (FK to User)</text></g><!--link User to Project--><g id="link_User_Project"><path codeLine="92" d="M577.26,231.32 C574.69,247.19 574.02,263.42 576.5,279 C578.06,288.79 578.7375,293.0085 581.2275,302.9885 " fill="none" id="User-to-Project" style="stroke:#181818;stroke-width:1.0;"/><polygon fill="#181818" points="582.68,308.81,584.3823,299.1094,581.4696,303.9587,576.6203,301.046,582.68,308.81" style="stroke:#181818;stroke-width:1.0;"/><text fill="#000000" font-family="sans-serif" font-size="13" lengthAdjust="spacing" textLength="43" x="577.5" y="275.4951">creates</text></g><!--link User to Project--><g id="link_User_Project"><path codeLine="93" d="M624.95,231.21 C625.17,241.28 625.36,251.33 625.5,261 C625.72,276.46 625.7636,286.7603 625.5936,302.8003 " fill="none" id="User-to-Project-1" style="stroke:#181818;stroke-width:1.0;"/><polygon fill="#181818" points="625.53,308.8,629.6252,299.8429,625.583,303.8003,621.6256,299.7581,625.53,308.8" style="stroke:#181818;stroke-width:1.0;"/><text fill="#000000" font-family="sans-serif" font-size="13" lengthAdjust="spacing" textLength="27" x="627.5" y="275.4951">joins</text></g><!--link User to BrainstormSession--><g id="link_User_BrainstormSession"><path codeLine="94" d="M576.32,151.09 C532.4,184.33 468.51,241.48 441.5,309 C396.48,421.55 402.93,474.87 461.5,581 C468.6,593.86 473.4355,601.9986 481.8455,614.6886 " fill="none" id="User-to-BrainstormSession" style="stroke:#181818;stroke-width:1.0;"/><polygon fill="#181818" points="485.16,619.69,483.5224,609.9782,482.3979,615.5222,476.8539,614.3976,485.16,619.69" style="stroke:#181818;stroke-width:1.0;"/><text fill="#000000" font-family="sans-serif" font-size="13" lengthAdjust="spacing" textLength="81" x="442.5" y="426.4951">participates in</text></g><!--link User to Notification--><g id="link_User_Notification"><path codeLine="95" d="M666.51,193.39 C696.35,242.05 732.0731,300.2853 761.1131,347.6353 " fill="none" id="User-to-Notification" style="stroke:#181818;stroke-width:1.0;"/><polygon fill="#181818" points="764.25,352.75,762.9545,342.9867,761.6359,348.4878,756.1349,347.1692,764.25,352.75" style="stroke:#181818;stroke-width:1.0;"/><text fill="#000000" font-family="sans-serif" font-size="13" lengthAdjust="spacing" textLength="47" x="720.5" y="275.4951">receives</text></g><!--link User to Invitation--><g id="link_User_Invitation"><path codeLine="96" d="M666.68,137.93 C728.42,164.99 837.52,222.48 890.5,309 C948.54,403.77 956.0467,528.8729 953.4067,613.6829 " fill="none" id="User-to-Invitation" style="stroke:#181818;stroke-width:1.0;"/><polygon fill="#181818" points="953.22,619.68,957.4981,610.8088,953.3756,614.6824,949.502,610.5599,953.22,619.68" style="stroke:#181818;stroke-width:1.0;"/><text fill="#000000" font-family="sans-serif" font-size="13" lengthAdjust="spacing" textLength="86" x="952.5" y="426.4951">sends/receives</text></g><!--link User to ProjectImage--><g id="link_User_ProjectImage"><path codeLine="97" d="M576.37,133.18 C502.27,156.93 354.2,213.52 265.5,309 C176.92,404.35 129.9784,546.3101 107.9684,631.6501 " fill="none" id="User-to-ProjectImage" style="stroke:#181818;stroke-width:1.0;"/><polygon fill="#181818" points="106.47,637.46,112.5909,629.7441,107.7187,632.6184,104.8444,627.7462,106.47,637.46" style="stroke:#181818;stroke-width:1.0;"/><text fill="#000000" font-family="sans-serif" font-size="13" lengthAdjust="spacing" textLength="45" x="266.5" y="426.4951">uploads</text></g><!--link User to Settings--><g id="link_User_Settings"><path codeLine="98" d="M576.27,141.98 C520.54,171.63 427.59,229.97 381.5,309 C327.46,401.65 317.1373,520.52 317.4573,604.98 " fill="none" id="User-to-Settings" style="stroke:#181818;stroke-width:1.0;"/><polygon fill="#181818" points="317.48,610.98,321.4459,601.9649,317.4611,605.98,313.4459,601.9952,317.48,610.98" style="stroke:#181818;stroke-width:1.0;"/><text fill="#000000" font-family="sans-serif" font-size="13" lengthAdjust="spacing" textLength="21" x="382.5" y="426.4951">has</text></g><!--link User to Idea--><g id="link_User_Idea"><path codeLine="99" d="M666.83,124.42 C757.78,136 961.15,176.23 1047.5,309 C1058.8,326.38 1058.26,778.82 1046.5,800 C1028.91,831.67 1006.1786,853.9966 975.9686,874.4466 " fill="none" id="User-to-Idea" style="stroke:#181818;stroke-width:1.0;"/><polygon fill="#181818" points="971,877.81,980.6952,876.0773,975.1405,875.0072,976.2107,869.4524,971,877.81" style="stroke:#181818;stroke-width:1.0;"/><text fill="#000000" font-family="sans-serif" font-size="13" lengthAdjust="spacing" textLength="43" x="1056.5" y="577.4951">creates</text></g><!--link Project to ProjectImage--><g id="link_Project_ProjectImage"><path codeLine="101" d="M542.36,514.34 C533.79,521.3 524.79,527.67 515.5,533 C451.63,569.63 258.47,576.36 193.5,611 C180.15,618.12 171.8028,623.5631 159.8528,633.5031 " fill="none" id="Project-to-ProjectImage" style="stroke:#181818;stroke-width:1.0;"/><polygon fill="#181818" points="155.24,637.34,164.7172,634.6598,159.084,634.1426,159.6013,628.5094,155.24,637.34" style="stroke:#181818;stroke-width:1.0;"/><text fill="#000000" font-family="sans-serif" font-size="13" lengthAdjust="spacing" textLength="21" x="409.5" y="577.4951">has</text></g><!--link Project to Invitation--><g id="link_Project_Invitation"><path codeLine="102" d="M702.71,516.88 C708.55,522.52 714.51,527.94 720.5,533 C770.84,575.48 794.19,570.98 846.5,611 C852.26,615.4 853.4625,616.2348 859.2225,621.0648 " fill="none" id="Project-to-Invitation" style="stroke:#181818;stroke-width:1.0;"/><polygon fill="#181818" points="863.82,624.92,859.4939,616.0722,859.9887,621.7073,854.3536,622.2022,863.82,624.92" style="stroke:#181818;stroke-width:1.0;"/><text fill="#000000" font-family="sans-serif" font-size="13" lengthAdjust="spacing" textLength="21" x="799.5" y="577.4951">has</text></g><!--link Project to BrainstormSession--><g id="link_Project_BrainstormSession"><path codeLine="103" d="M593.36,533.25 C585.8,562.12 579.2893,586.9455 572.1593,614.1855 " fill="none" id="Project-to-BrainstormSession" style="stroke:#181818;stroke-width:1.0;"/><polygon fill="#181818" points="570.64,619.99,576.7886,612.2962,571.9061,615.153,569.0493,610.2704,570.64,619.99" style="stroke:#181818;stroke-width:1.0;"/><text fill="#000000" font-family="sans-serif" font-size="13" lengthAdjust="spacing" textLength="51" x="586.5" y="577.4951">can have</text></g><!--link Project to Filter--><g id="link_Project_Filter"><path codeLine="104" d="M671.33,533.25 C688.27,571.85 704.179,608.0857 718.489,640.6957 " fill="none" id="Project-to-Filter" style="stroke:#181818;stroke-width:1.0;"/><polygon fill="#181818" points="720.9,646.19,720.9463,636.3413,718.8908,641.6114,713.6206,639.5559,720.9,646.19" style="stroke:#181818;stroke-width:1.0;"/><text fill="#000000" font-family="sans-serif" font-size="13" lengthAdjust="spacing" textLength="51" x="693.5" y="577.4951">can have</text></g><!--link Project to Settings--><g id="link_Project_Settings"><path codeLine="105" d="M542.26,506.62 C533.33,515.62 524.28,524.56 515.5,533 C488.58,558.85 463.2429,582.032 435.2529,606.932 " fill="none" id="Project-to-Settings" style="stroke:#181818;stroke-width:1.0;"/><polygon fill="#181818" points="430.77,610.92,440.1529,607.9266,434.5057,607.5967,434.8356,601.9495,430.77,610.92" style="stroke:#181818;stroke-width:1.0;"/><text fill="#000000" font-family="sans-serif" font-size="13" lengthAdjust="spacing" textLength="51" x="480.5" y="577.4951">can have</text></g><!--link BrainstormSession to Idea--><g id="link_BrainstormSession_Idea"><path codeLine="107" d="M628.67,783.64 C634.67,789.21 640.66,794.71 646.5,800 C675.17,825.94 702.6551,849.8462 731.0851,874.0962 " fill="none" id="BrainstormSession-to-Idea" style="stroke:#181818;stroke-width:1.0;"/><polygon fill="#181818" points="735.65,877.99,731.3984,869.1061,731.8459,874.7452,726.2068,875.1926,735.65,877.99" style="stroke:#181818;stroke-width:1.0;"/><text fill="#000000" font-family="sans-serif" font-size="13" lengthAdjust="spacing" textLength="57" x="698.5" y="844.4951">generates</text></g><!--SRC=[dLJ1Rjim3BtxAuHUsW0hTjzXmDAqGD2Y298LEois4xDJ94EYKmJ3_dsKP4TouhR1BZOfKdoF5CbhCOCDQX2W2Gd12QahGJMW5PB8uhebS4Mm7iIB0ol-5288yvcuMJnEM7kME-3V_KwYulz2ElTcREL5QpQeOBwJM-ynHSFVrMzKoh7mP4f9Q3IBTnOaGVM3VF2cwkI_HO_CWLwXf03UoGd_9vBouMVWIejD7vA3R8qzU4IIbcQiUvQwwYG-fTObyEb1t3my2Z8XlSdbh49wWLgG4h6WlYoVmdLbP3K6agKJ3Tt19BirG9thFL8eNCGygWduevWhq5LylI6F9PI0-p7BiL1ybK8nbk0Qeq-9JQr4xSZOtGgSw_brycVFzQj6WhMHjee5- -z7UK15NPj6CI57lMlNgDnPXhKeFonQ2lvi23TOfkhd1mceduyJvaOJn_5lvfOWgq4o2MC5HAYthgjUL3wB_HxvBqAtIicrWia9MtUl_N4SKzpByj1Z-T6KUjjoyouiRC22Bk62oiyhaB4bMKY4pzeYaJmp3SjqGGym-dM_mooec5cDZHDhe3S0VTniHTXUjxVVZylacxWgGo1tDMfyDKmkCvttDpirl5gmnCQ74QWpzq6liAUD0vP7p4QP7HnFfliwuZROC-pOXhMGUnnxXgsr743uHyapBVeCnoA7kxd3aE6PURGafTIYbdiOkdPp-QuzJo5v5ES8ULPRq61ZNly0]--></g></svg>