<svg width="1861" height="491" viewBox="0 0 1861 491" fill="none" xmlns="http://www.w3.org/2000/svg">
<rect width="1861" height="491" fill="white"/>
<path d="M480.933 187.955C477.359 190.045 473.66 191.915 469.874 193.615C457.72 199.055 444.846 203.335 431.616 203.555C427.148 203.625 422.402 203.135 418.808 200.365C414.956 197.405 413.457 190.955 415.734 186.455C418.424 181.135 426.062 180.525 431.068 179.955C452.417 177.535 474.169 165.955 489.685 150.495C491.011 149.175 493.538 146.815 495.287 147.395C496.91 147.935 498.284 149.995 499.082 151.425C500.523 154.005 504.059 160.545 504.059 160.545C504.059 160.545 505.558 162.775 505.75 165.065C505.971 167.795 500.888 172.745 500.888 172.745C495.056 179.005 488.167 183.725 480.942 187.945L480.933 187.955Z" fill="#18181B"/>
<path d="M446.517 163.575C455.039 163.575 461.948 156.385 461.948 147.515C461.948 138.645 455.039 131.455 446.517 131.455C437.995 131.455 431.087 138.645 431.087 147.515C431.087 156.385 437.995 163.575 446.517 163.575Z" fill="#18181B"/>
<path d="M544.239 189.085C540.713 186.905 537.302 184.505 534.006 181.945C523.399 173.715 513.398 164.245 506.605 152.425C504.309 148.435 502.349 143.905 502.848 139.285C503.386 134.325 508.008 129.755 512.879 129.555C518.653 129.315 522.977 135.895 525.955 140.135C538.647 158.175 559.16 171.985 579.778 178.245C581.536 178.775 584.765 179.875 585.149 181.745C585.514 183.485 584.486 185.745 583.689 187.185C582.267 189.775 578.587 196.235 578.587 196.235C578.587 196.235 577.482 198.705 575.666 200.025C573.504 201.595 566.846 199.485 566.846 199.485C558.718 197.355 551.349 193.515 544.229 189.105L544.239 189.085Z" fill="#18181B"/>
<path d="M560.678 153.905C569.2 153.905 576.108 146.715 576.108 137.845C576.108 128.975 569.2 121.785 560.678 121.785C552.156 121.785 545.248 128.975 545.248 137.845C545.248 146.715 552.156 153.905 560.678 153.905Z" fill="#18181B"/>
<path d="M574.859 246.755C574.907 242.485 575.205 238.215 575.685 233.955C577.232 220.275 580.114 206.525 586.552 194.495C588.723 190.425 591.509 186.395 595.612 184.535C600.003 182.545 606.123 184.415 608.717 188.715C611.801 193.805 608.486 200.985 606.459 205.785C597.793 226.245 596.563 251.635 601.665 273.355C602.097 275.205 602.799 278.665 601.444 279.945C600.185 281.145 597.783 281.345 596.188 281.355C593.325 281.365 586.11 281.285 586.11 281.285C586.11 281.285 583.496 281.525 581.498 280.545C579.115 279.385 577.54 272.325 577.54 272.325C575.243 263.935 574.763 255.365 574.869 246.755H574.859Z" fill="#18181B"/>
<path d="M625.713 252.015C634.235 252.015 641.143 244.825 641.143 235.955C641.143 227.085 634.235 219.895 625.713 219.895C617.191 219.895 610.283 227.085 610.283 235.955C610.283 244.825 617.191 252.015 625.713 252.015Z" fill="#18181B"/>
<path d="M542.173 303.105C545.747 301.015 549.446 299.145 553.232 297.445C565.386 292.005 578.26 287.725 591.49 287.505C595.958 287.435 600.704 287.925 604.297 290.695C608.15 293.655 609.649 300.105 607.372 304.605C604.682 309.925 597.043 310.535 592.038 311.105C570.689 313.525 548.937 325.105 533.42 340.565C532.094 341.885 529.568 344.245 527.819 343.665C526.195 343.125 524.821 341.065 524.024 339.635C522.583 337.055 519.047 330.515 519.047 330.515C519.047 330.515 517.548 328.285 517.356 325.995C517.135 323.265 522.218 318.315 522.218 318.315C528.05 312.055 534.938 307.335 542.163 303.115L542.173 303.105Z" fill="#18181B"/>
<path d="M576.588 359.605C585.11 359.605 592.019 352.415 592.019 343.545C592.019 334.675 585.11 327.485 576.588 327.485C568.067 327.485 561.158 334.675 561.158 343.545C561.158 352.415 568.067 359.605 576.588 359.605Z" fill="#18181B"/>
<path d="M478.675 301.915C482.201 304.095 485.612 306.495 488.907 309.055C499.514 317.285 509.516 326.755 516.309 338.575C518.605 342.565 520.565 347.095 520.065 351.715C519.527 356.675 514.906 361.245 510.035 361.445C504.261 361.685 499.937 355.105 496.959 350.865C484.267 332.825 463.754 319.015 443.135 312.755C441.377 312.225 438.149 311.125 437.765 309.255C437.4 307.515 438.428 305.255 439.225 303.815C440.647 301.225 444.327 294.765 444.327 294.765C444.327 294.765 445.432 292.295 447.248 290.975C449.409 289.405 456.068 291.515 456.068 291.515C464.196 293.645 471.565 297.485 478.684 301.895L478.675 301.915Z" fill="#18181B"/>
<path d="M462.236 369.215C470.758 369.215 477.666 362.025 477.666 353.155C477.666 344.285 470.758 337.095 462.236 337.095C453.714 337.095 446.806 344.285 446.806 353.155C446.806 362.025 453.714 369.215 462.236 369.215Z" fill="#18181B"/>
<path d="M448.141 244.285C448.093 248.555 447.795 252.825 447.315 257.085C445.768 270.765 442.886 284.515 436.448 296.545C434.277 300.615 431.491 304.645 427.388 306.505C422.997 308.495 416.877 306.625 414.283 302.325C411.199 297.235 414.514 290.055 416.541 285.255C425.207 264.795 426.437 239.405 421.335 217.685C420.903 215.835 420.201 212.375 421.556 211.095C422.815 209.895 425.217 209.695 426.812 209.685C429.675 209.675 436.89 209.755 436.89 209.755C436.89 209.755 439.504 209.515 441.502 210.495C443.885 211.655 445.46 218.715 445.46 218.715C447.757 227.105 448.237 235.675 448.131 244.285H448.141Z" fill="#18181B"/>
<path d="M397.287 271.145C405.809 271.145 412.717 263.955 412.717 255.085C412.717 246.215 405.809 239.025 397.287 239.025C388.765 239.025 381.857 246.215 381.857 255.085C381.857 263.955 388.765 271.145 397.287 271.145Z" fill="#18181B"/>
<path d="M766.944 300.1C755.21 300.1 745.13 297.753 736.704 293.06C728.384 288.26 721.984 281.54 717.504 272.9C713.024 264.153 710.784 253.86 710.784 242.02C710.784 233.167 712.064 225.22 714.624 218.18C717.184 211.033 720.864 204.953 725.664 199.94C730.464 194.82 736.33 190.927 743.264 188.26C750.304 185.487 758.197 184.1 766.944 184.1C772.81 184.1 778.57 184.847 784.224 186.34C789.877 187.833 794.837 189.967 799.104 192.74C801.344 194.127 802.837 195.833 803.584 197.86C804.33 199.78 804.49 201.7 804.064 203.62C803.637 205.433 802.73 206.98 801.344 208.26C800.064 209.54 798.41 210.287 796.384 210.5C794.464 210.607 792.33 209.913 789.984 208.42C786.677 206.287 783.104 204.74 779.264 203.78C775.424 202.82 771.53 202.34 767.584 202.34C760.01 202.34 753.61 203.887 748.384 206.98C743.157 210.073 739.21 214.553 736.544 220.42C733.877 226.287 732.544 233.487 732.544 242.02C732.544 250.447 733.877 257.647 736.544 263.62C739.21 269.593 743.157 274.127 748.384 277.22C753.61 280.313 760.01 281.86 767.584 281.86C771.637 281.86 775.637 281.38 779.584 280.42C783.53 279.353 787.264 277.753 790.784 275.62C793.13 274.233 795.21 273.647 797.024 273.86C798.944 273.967 800.544 274.607 801.824 275.78C803.104 276.953 803.957 278.447 804.384 280.26C804.81 281.967 804.704 283.78 804.064 285.7C803.424 287.513 802.144 289.113 800.224 290.5C795.957 293.593 790.837 295.993 784.864 297.7C778.997 299.3 773.024 300.1 766.944 300.1ZM851.349 300.1C843.242 300.1 836.202 298.447 830.229 295.14C824.255 291.833 819.615 287.14 816.309 281.06C813.002 274.873 811.349 267.62 811.349 259.3C811.349 253.007 812.255 247.407 814.069 242.5C815.989 237.487 818.709 233.22 822.229 229.7C825.749 226.073 829.962 223.353 834.869 221.54C839.775 219.62 845.269 218.66 851.349 218.66C859.455 218.66 866.495 220.313 872.469 223.62C878.442 226.927 883.082 231.62 886.389 237.7C889.695 243.78 891.349 250.98 891.349 259.3C891.349 265.593 890.389 271.247 888.469 276.26C886.655 281.273 883.989 285.593 880.469 289.22C876.949 292.74 872.735 295.46 867.829 297.38C862.922 299.193 857.429 300.1 851.349 300.1ZM851.349 284.9C855.295 284.9 858.762 283.94 861.749 282.02C864.735 280.1 867.029 277.273 868.629 273.54C870.335 269.7 871.189 264.953 871.189 259.3C871.189 250.767 869.375 244.42 865.749 240.26C862.122 235.993 857.322 233.86 851.349 233.86C847.402 233.86 843.935 234.82 840.949 236.74C837.962 238.553 835.615 241.38 833.909 245.22C832.309 248.953 831.509 253.647 831.509 259.3C831.509 267.727 833.322 274.127 836.949 278.5C840.575 282.767 845.375 284.9 851.349 284.9ZM934.576 300.1C925.723 300.1 919.056 297.593 914.576 292.58C910.096 287.46 907.856 279.993 907.856 270.18V194.5C907.856 191.193 908.71 188.687 910.416 186.98C912.123 185.273 914.576 184.42 917.776 184.42C920.976 184.42 923.43 185.273 925.136 186.98C926.95 188.687 927.856 191.193 927.856 194.5V269.22C927.856 274.127 928.87 277.753 930.896 280.1C933.03 282.447 936.016 283.62 939.856 283.62C940.71 283.62 941.51 283.62 942.256 283.62C943.003 283.513 943.75 283.407 944.496 283.3C945.99 283.087 947.003 283.513 947.536 284.58C948.07 285.54 948.336 287.567 948.336 290.66C948.336 293.327 947.803 295.407 946.736 296.9C945.67 298.393 943.91 299.3 941.456 299.62C940.39 299.727 939.27 299.833 938.096 299.94C936.923 300.047 935.75 300.1 934.576 300.1ZM985.67 300.1C976.817 300.1 970.15 297.593 965.67 292.58C961.19 287.46 958.95 279.993 958.95 270.18V194.5C958.95 191.193 959.803 188.687 961.51 186.98C963.217 185.273 965.67 184.42 968.87 184.42C972.07 184.42 974.523 185.273 976.23 186.98C978.043 188.687 978.95 191.193 978.95 194.5V269.22C978.95 274.127 979.963 277.753 981.99 280.1C984.123 282.447 987.11 283.62 990.95 283.62C991.803 283.62 992.603 283.62 993.35 283.62C994.097 283.513 994.843 283.407 995.59 283.3C997.083 283.087 998.097 283.513 998.63 284.58C999.163 285.54 999.43 287.567 999.43 290.66C999.43 293.327 998.897 295.407 997.83 296.9C996.763 298.393 995.003 299.3 992.55 299.62C991.483 299.727 990.363 299.833 989.19 299.94C988.017 300.047 986.843 300.1 985.67 300.1ZM1035.8 300.1C1030.15 300.1 1025.08 299.033 1020.6 296.9C1016.23 294.66 1012.76 291.673 1010.2 287.94C1007.75 284.207 1006.52 279.993 1006.52 275.3C1006.52 269.54 1008.02 265.007 1011 261.7C1013.99 258.287 1018.84 255.833 1025.56 254.34C1032.28 252.847 1041.3 252.1 1052.6 252.1H1060.6V263.62H1052.76C1046.15 263.62 1040.87 263.94 1036.92 264.58C1032.98 265.22 1030.15 266.34 1028.44 267.94C1026.84 269.433 1026.04 271.567 1026.04 274.34C1026.04 277.86 1027.27 280.74 1029.72 282.98C1032.18 285.22 1035.59 286.34 1039.96 286.34C1043.48 286.34 1046.58 285.54 1049.24 283.94C1052.02 282.233 1054.2 279.94 1055.8 277.06C1057.4 274.18 1058.2 270.873 1058.2 267.14V248.74C1058.2 243.407 1057.03 239.567 1054.68 237.22C1052.34 234.873 1048.39 233.7 1042.84 233.7C1039.75 233.7 1036.39 234.073 1032.76 234.82C1029.24 235.567 1025.51 236.847 1021.56 238.66C1019.54 239.62 1017.72 239.887 1016.12 239.46C1014.63 239.033 1013.46 238.18 1012.6 236.9C1011.75 235.513 1011.32 234.02 1011.32 232.42C1011.32 230.82 1011.75 229.273 1012.6 227.78C1013.46 226.18 1014.9 225.007 1016.92 224.26C1021.83 222.233 1026.52 220.793 1031 219.94C1035.59 219.087 1039.75 218.66 1043.48 218.66C1051.16 218.66 1057.46 219.833 1062.36 222.18C1067.38 224.527 1071.11 228.1 1073.56 232.9C1076.02 237.593 1077.24 243.673 1077.24 251.14V289.54C1077.24 292.847 1076.44 295.407 1074.84 297.22C1073.24 298.927 1070.95 299.78 1067.96 299.78C1064.98 299.78 1062.63 298.927 1060.92 297.22C1059.32 295.407 1058.52 292.847 1058.52 289.54V281.86H1059.8C1059.06 285.593 1057.56 288.847 1055.32 291.62C1053.19 294.287 1050.47 296.367 1047.16 297.86C1043.86 299.353 1040.07 300.1 1035.8 300.1ZM1142.66 300.1C1136.05 300.1 1130.24 298.447 1125.22 295.14C1120.32 291.833 1117.06 287.407 1115.46 281.86L1117.22 277.86V289.54C1117.22 292.847 1116.37 295.407 1114.66 297.22C1112.96 298.927 1110.56 299.78 1107.46 299.78C1104.26 299.78 1101.81 298.927 1100.1 297.22C1098.4 295.407 1097.54 292.847 1097.54 289.54V194.5C1097.54 191.193 1098.4 188.687 1100.1 186.98C1101.81 185.273 1104.26 184.42 1107.46 184.42C1110.66 184.42 1113.12 185.273 1114.82 186.98C1116.64 188.687 1117.54 191.193 1117.54 194.5V236.1H1115.62C1117.33 230.873 1120.64 226.66 1125.54 223.46C1130.45 220.26 1136.16 218.66 1142.66 218.66C1149.6 218.66 1155.62 220.313 1160.74 223.62C1165.86 226.927 1169.86 231.62 1172.74 237.7C1175.62 243.673 1177.06 250.873 1177.06 259.3C1177.06 267.62 1175.62 274.873 1172.74 281.06C1169.86 287.14 1165.81 291.833 1160.58 295.14C1155.46 298.447 1149.49 300.1 1142.66 300.1ZM1137.06 284.9C1141.01 284.9 1144.48 283.94 1147.46 282.02C1150.45 280.1 1152.74 277.273 1154.34 273.54C1156.05 269.7 1156.9 264.953 1156.9 259.3C1156.9 250.767 1155.09 244.42 1151.46 240.26C1147.84 235.993 1143.04 233.86 1137.06 233.86C1133.12 233.86 1129.65 234.82 1126.66 236.74C1123.68 238.553 1121.33 241.38 1119.62 245.22C1118.02 248.953 1117.22 253.647 1117.22 259.3C1117.22 267.727 1119.04 274.127 1122.66 278.5C1126.29 282.767 1131.09 284.9 1137.06 284.9ZM1229.16 300.1C1221.05 300.1 1214.01 298.447 1208.04 295.14C1202.07 291.833 1197.43 287.14 1194.12 281.06C1190.81 274.873 1189.16 267.62 1189.16 259.3C1189.16 253.007 1190.07 247.407 1191.88 242.5C1193.8 237.487 1196.52 233.22 1200.04 229.7C1203.56 226.073 1207.77 223.353 1212.68 221.54C1217.59 219.62 1223.08 218.66 1229.16 218.66C1237.27 218.66 1244.31 220.313 1250.28 223.62C1256.25 226.927 1260.89 231.62 1264.2 237.7C1267.51 243.78 1269.16 250.98 1269.16 259.3C1269.16 265.593 1268.2 271.247 1266.28 276.26C1264.47 281.273 1261.8 285.593 1258.28 289.22C1254.76 292.74 1250.55 295.46 1245.64 297.38C1240.73 299.193 1235.24 300.1 1229.16 300.1ZM1229.16 284.9C1233.11 284.9 1236.57 283.94 1239.56 282.02C1242.55 280.1 1244.84 277.273 1246.44 273.54C1248.15 269.7 1249 264.953 1249 259.3C1249 250.767 1247.19 244.42 1243.56 240.26C1239.93 235.993 1235.13 233.86 1229.16 233.86C1225.21 233.86 1221.75 234.82 1218.76 236.74C1215.77 238.553 1213.43 241.38 1211.72 245.22C1210.12 248.953 1209.32 253.647 1209.32 259.3C1209.32 267.727 1211.13 274.127 1214.76 278.5C1218.39 282.767 1223.19 284.9 1229.16 284.9ZM1295.91 299.78C1292.6 299.78 1290.04 298.927 1288.23 297.22C1286.52 295.407 1285.67 292.847 1285.67 289.54V229.06C1285.67 225.753 1286.52 223.247 1288.23 221.54C1289.94 219.833 1292.34 218.98 1295.43 218.98C1298.52 218.98 1300.92 219.833 1302.63 221.54C1304.34 223.247 1305.19 225.753 1305.19 229.06V239.14H1303.59C1305.08 232.74 1308.02 227.887 1312.39 224.58C1316.76 221.273 1322.58 219.3 1329.83 218.66C1332.07 218.447 1333.83 219.033 1335.11 220.42C1336.5 221.7 1337.3 223.727 1337.51 226.5C1337.72 229.167 1337.08 231.353 1335.59 233.06C1334.2 234.66 1332.07 235.62 1329.19 235.94L1325.67 236.26C1319.16 236.9 1314.26 238.927 1310.95 242.34C1307.64 245.647 1305.99 250.34 1305.99 256.42V289.54C1305.99 292.847 1305.14 295.407 1303.43 297.22C1301.72 298.927 1299.22 299.78 1295.91 299.78ZM1358.24 299.62C1355.04 299.62 1352.59 298.66 1350.88 296.74C1349.18 294.82 1348.32 292.153 1348.32 288.74V230.02C1348.32 226.5 1349.18 223.833 1350.88 222.02C1352.59 220.1 1355.04 219.14 1358.24 219.14C1361.44 219.14 1363.9 220.1 1365.6 222.02C1367.42 223.833 1368.32 226.5 1368.32 230.02V288.74C1368.32 292.153 1367.47 294.82 1365.76 296.74C1364.06 298.66 1361.55 299.62 1358.24 299.62ZM1358.24 204.26C1354.51 204.26 1351.58 203.353 1349.44 201.54C1347.42 199.62 1346.4 197.007 1346.4 193.7C1346.4 190.287 1347.42 187.673 1349.44 185.86C1351.58 184.047 1354.51 183.14 1358.24 183.14C1362.08 183.14 1365.02 184.047 1367.04 185.86C1369.07 187.673 1370.08 190.287 1370.08 193.7C1370.08 197.007 1369.07 199.62 1367.04 201.54C1365.02 203.353 1362.08 204.26 1358.24 204.26ZM1393.91 298.5C1391.88 298.5 1390.17 298.02 1388.79 297.06C1387.51 295.993 1386.65 294.66 1386.23 293.06C1385.8 291.46 1385.8 289.753 1386.23 287.94C1386.76 286.02 1387.77 284.207 1389.27 282.5L1430.71 230.5V235.3H1392.95C1390.49 235.3 1388.57 234.66 1387.19 233.38C1385.91 231.993 1385.27 230.127 1385.27 227.78C1385.27 225.327 1385.91 223.46 1387.19 222.18C1388.57 220.9 1390.49 220.26 1392.95 220.26H1440.31C1442.65 220.26 1444.57 220.793 1446.07 221.86C1447.56 222.82 1448.52 224.1 1448.95 225.7C1449.48 227.3 1449.53 229.007 1449.11 230.82C1448.68 232.633 1447.72 234.34 1446.23 235.94L1403.99 288.74V283.46H1443.99C1449.11 283.46 1451.67 285.967 1451.67 290.98C1451.67 293.327 1450.97 295.193 1449.59 296.58C1448.31 297.86 1446.44 298.5 1443.99 298.5H1393.91ZM1501.88 300.1C1493.03 300.1 1485.4 298.447 1479 295.14C1472.6 291.833 1467.64 287.14 1464.12 281.06C1460.71 274.98 1459 267.78 1459 259.46C1459 251.353 1460.66 244.26 1463.96 238.18C1467.38 232.1 1472.02 227.353 1477.88 223.94C1483.86 220.42 1490.63 218.66 1498.2 218.66C1503.75 218.66 1508.71 219.567 1513.08 221.38C1517.56 223.193 1521.35 225.807 1524.44 229.22C1527.64 232.633 1530.04 236.793 1531.64 241.7C1533.35 246.5 1534.2 251.94 1534.2 258.02C1534.2 259.94 1533.51 261.433 1532.12 262.5C1530.84 263.46 1528.98 263.94 1526.52 263.94H1475.16V252.42H1520.12L1517.56 254.82C1517.56 249.913 1516.82 245.807 1515.32 242.5C1513.94 239.193 1511.86 236.687 1509.08 234.98C1506.42 233.167 1503.06 232.26 1499 232.26C1494.52 232.26 1490.68 233.327 1487.48 235.46C1484.39 237.487 1481.99 240.42 1480.28 244.26C1478.68 247.993 1477.88 252.473 1477.88 257.7V258.82C1477.88 267.567 1479.91 274.127 1483.96 278.5C1488.12 282.767 1494.2 284.9 1502.2 284.9C1504.98 284.9 1508.07 284.58 1511.48 283.94C1515 283.193 1518.31 281.967 1521.4 280.26C1523.64 278.98 1525.62 278.447 1527.32 278.66C1529.03 278.767 1530.36 279.353 1531.32 280.42C1532.39 281.487 1533.03 282.82 1533.24 284.42C1533.46 285.913 1533.14 287.46 1532.28 289.06C1531.54 290.66 1530.2 292.047 1528.28 293.22C1524.55 295.567 1520.23 297.327 1515.32 298.5C1510.52 299.567 1506.04 300.1 1501.88 300.1Z" fill="#18181B"/>
</svg>
