<?xml version="1.0" encoding="us-ascii" standalone="no"?><svg xmlns="http://www.w3.org/2000/svg" xmlns:xlink="http://www.w3.org/1999/xlink" contentStyleType="text/css" height="360px" preserveAspectRatio="none" style="width:597px;height:360px;background:#FFFFFF;" version="1.1" viewBox="0 0 597 360" width="597px" zoomAndPan="magnify"><defs/><g><!--cluster Server--><g id="cluster_Server"><rect fill="none" height="246" rx="2.5" ry="2.5" style="stroke:#181818;stroke-width:1.0;" width="297" x="54.5" y="7"/><text fill="#000000" font-family="sans-serif" font-size="14" font-weight="bold" lengthAdjust="spacing" textLength="48" x="179" y="23.5332">Server</text></g><!--cluster db--><g id="cluster_db"><path d="M383.5,140 C383.5,130 482,130 482,130 C482,130 580.5,130 580.5,140 L580.5,251 C580.5,261 482,261 482,261 C482,261 383.5,261 383.5,251 L383.5,140 " fill="none" style="stroke:#181818;stroke-width:1.0;"/><path d="M383.5,140 C383.5,150 482,150 482,150 C482,150 580.5,150 580.5,140 " fill="none" style="stroke:#181818;stroke-width:1.0;"/><text fill="#000000" font-family="sans-serif" font-size="14" font-weight="bold" lengthAdjust="spacing" textLength="65" x="449.5" y="166.5332">Database</text></g><!--entity front--><g id="elem_front"><rect fill="#F1F1F1" height="47.6094" rx="2.5" ry="2.5" style="stroke:#181818;stroke-width:0.5;" width="98" x="237.5" y="43"/><rect fill="#F1F1F1" height="10" style="stroke:#181818;stroke-width:0.5;" width="15" x="315.5" y="48"/><rect fill="#F1F1F1" height="2" style="stroke:#181818;stroke-width:0.5;" width="4" x="313.5" y="50"/><rect fill="#F1F1F1" height="2" style="stroke:#181818;stroke-width:0.5;" width="4" x="313.5" y="54"/><text fill="#000000" font-family="sans-serif" font-size="14" lengthAdjust="spacing" textLength="58" x="252.5" y="77.5332">Frontend</text></g><!--entity back--><g id="elem_back"><rect fill="#F1F1F1" height="47.6094" rx="2.5" ry="2.5" style="stroke:#181818;stroke-width:0.5;" width="95" x="240" y="189"/><rect fill="#F1F1F1" height="10" style="stroke:#181818;stroke-width:0.5;" width="15" x="315" y="194"/><rect fill="#F1F1F1" height="2" style="stroke:#181818;stroke-width:0.5;" width="4" x="313" y="196"/><rect fill="#F1F1F1" height="2" style="stroke:#181818;stroke-width:0.5;" width="4" x="313" y="200"/><text fill="#000000" font-family="sans-serif" font-size="14" lengthAdjust="spacing" textLength="55" x="255" y="223.5332">Backend</text></g><!--entity RP--><g id="elem_RP"><rect fill="#F1F1F1" height="47.6094" rx="2.5" ry="2.5" style="stroke:#181818;stroke-width:0.5;" width="132" x="70.5" y="43"/><rect fill="#F1F1F1" height="10" style="stroke:#181818;stroke-width:0.5;" width="15" x="182.5" y="48"/><rect fill="#F1F1F1" height="2" style="stroke:#181818;stroke-width:0.5;" width="4" x="180.5" y="50"/><rect fill="#F1F1F1" height="2" style="stroke:#181818;stroke-width:0.5;" width="4" x="180.5" y="54"/><text fill="#000000" font-family="sans-serif" font-size="14" lengthAdjust="spacing" textLength="92" x="85.5" y="77.5332">Reverse Proxy</text></g><!--entity Vector Search--><g id="elem_Vector Search"><rect fill="#F1F1F1" height="47.6094" rx="2.5" ry="2.5" style="stroke:#181818;stroke-width:0.5;" width="130" x="426.5" y="189"/><rect fill="#F1F1F1" height="10" style="stroke:#181818;stroke-width:0.5;" width="15" x="536.5" y="194"/><rect fill="#F1F1F1" height="2" style="stroke:#181818;stroke-width:0.5;" width="4" x="534.5" y="196"/><rect fill="#F1F1F1" height="2" style="stroke:#181818;stroke-width:0.5;" width="4" x="534.5" y="200"/><text fill="#000000" font-family="sans-serif" font-size="14" lengthAdjust="spacing" textLength="90" x="441.5" y="223.5332">Vector Search</text></g><!--entity fileDb--><g id="elem_fileDb"><path d="M294,307 C294,297 339.5,297 339.5,297 C339.5,297 385,297 385,307 L385,333.6094 C385,343.6094 339.5,343.6094 339.5,343.6094 C339.5,343.6094 294,343.6094 294,333.6094 L294,307 " fill="#F1F1F1" style="stroke:#181818;stroke-width:0.5;"/><path d="M294,307 C294,317 339.5,317 339.5,317 C339.5,317 385,317 385,307 " fill="none" style="stroke:#181818;stroke-width:0.5;"/><text fill="#000000" font-family="sans-serif" font-size="14" lengthAdjust="spacing" textLength="71" x="304" y="335.5332">Filestorage</text></g><!--entity user--><g id="elem_user"><ellipse cx="20.5" cy="36.5" fill="#F1F1F1" rx="8" ry="8" style="stroke:#181818;stroke-width:0.5;"/><path d="M20.5,44.5 L20.5,71.5 M7.5,52.5 L33.5,52.5 M20.5,71.5 L7.5,86.5 M20.5,71.5 L33.5,86.5 " fill="none" style="stroke:#181818;stroke-width:0.5;"/><text fill="#000000" font-family="sans-serif" font-size="14" lengthAdjust="spacing" textLength="29" x="6" y="102.5332">User</text></g><!--link db to fileDb--><!--link user to RP--><g id="link_user_RP"><path d="M35.19,67 C44.46,67 51.15,67 64.42,67 " fill="none" id="user-to-RP" style="stroke:#181818;stroke-width:1.0;"/><polygon fill="#181818" points="70.42,67,61.42,63,65.42,67,61.42,71,70.42,67" style="stroke:#181818;stroke-width:1.0;"/></g><!--link RP to front--><g id="link_RP_front"><path d="M202.73,67 C214.34,67 220.24,67 231.29,67 " fill="none" id="RP-to-front" style="stroke:#181818;stroke-width:1.0;"/><polygon fill="#181818" points="237.29,67,228.29,63,232.29,67,228.29,71,237.29,67" style="stroke:#181818;stroke-width:1.0;"/></g><!--link front to back--><g id="link_front_back"><path d="M287.5,91.11 C287.5,118.16 287.5,155.79 287.5,182.86 " fill="none" id="front-to-back" style="stroke:#181818;stroke-width:1.0;"/><polygon fill="#181818" points="287.5,188.86,291.5,179.86,287.5,183.86,283.5,179.86,287.5,188.86" style="stroke:#181818;stroke-width:1.0;"/></g><!--link back to db--><g id="link_back_db"><path d="M335.24,213 C347.63,213 360.3425,213 370.5413,213 C373.0909,213 375.4835,213 377.6747,213 C378.7702,213 379.8155,213 380.8048,213 C381.2994,213 381.7801,213 382.2462,213 C382.4792,213 382.7085,213 382.9341,213 C383.0469,213 383.1588,213 383.2697,213 C383.3251,213 377.3803,213 377.4353,213 " fill="none" id="back-to-db" style="stroke:#181818;stroke-width:1.0;"/><polygon fill="#181818" points="383.4353,213,374.4353,209,378.4353,213,374.4353,217,383.4353,213" style="stroke:#181818;stroke-width:1.0;"/></g><!--link back to fileDb--><g id="link_back_fileDb"><path d="M314.5,237.13 C314.5,254.95 314.5,273.11 314.5,290.83 " fill="none" id="back-to-fileDb" style="stroke:#181818;stroke-width:1.0;"/><polygon fill="#181818" points="314.5,296.83,318.5,287.83,314.5,291.83,310.5,287.83,314.5,296.83" style="stroke:#181818;stroke-width:1.0;"/></g><!--SRC=[NO-x3i8m34LtVuMLlR_0W11pLGGBOd0QGojAKZa1WH3_ZfFo42pETOwl7_7O-v64JZZqdjDjP0oIkW0Wt2RoXu7Hh5WkB0RlWDY6qnWy-uHcAS4dziuWHTpdv9VFgJs-iLKDlxXXRHePQmdNMobgQdW0E4faIO5Pl5I1plxFt-Y6GN3596rdrFfrBlk1eq8wJEQzvWiBGCMnZYpvzwolphDORRlUEVQxwbEP6LQpl5DJPp4TM29McfUBSiZGsO-S6Zm1]--></g></svg>