<svg width="1428" height="400" viewBox="0 0 1428 400" fill="none" xmlns="http://www.w3.org/2000/svg">
<rect width="1332" height="400" fill="#18181B"/>
<path d="M166.61 142.88C162.89 144.97 159.04 146.84 155.1 148.54C142.45 153.98 129.05 158.26 115.28 158.48C110.63 158.55 105.69 158.06 101.95 155.29C97.94 152.33 96.38 145.88 98.75 141.38C101.55 136.06 109.5 135.45 114.71 134.88C136.93 132.46 159.57 120.88 175.72 105.42C177.1 104.1 179.73 101.74 181.55 102.32C183.24 102.86 184.67 104.92 185.5 106.35C187 108.93 190.68 115.47 190.68 115.47C190.68 115.47 192.24 117.7 192.44 119.99C192.67 122.72 187.38 127.67 187.38 127.67C181.31 133.93 174.14 138.65 166.62 142.87L166.61 142.88Z" fill="white"/>
<path d="M130.79 118.5C139.66 118.5 146.85 111.31 146.85 102.44C146.85 93.5703 139.66 86.38 130.79 86.38C121.92 86.38 114.73 93.5703 114.73 102.44C114.73 111.31 121.92 118.5 130.79 118.5Z" fill="white"/>
<path d="M232.5 144.01C228.83 141.83 225.28 139.43 221.85 136.87C210.81 128.64 200.4 119.17 193.33 107.35C190.94 103.36 188.9 98.83 189.42 94.21C189.98 89.25 194.79 84.68 199.86 84.48C205.87 84.24 210.37 90.82 213.47 95.06C226.68 113.1 248.03 126.91 269.49 133.17C271.32 133.7 274.68 134.8 275.08 136.67C275.46 138.41 274.39 140.67 273.56 142.11C272.08 144.7 268.25 151.16 268.25 151.16C268.25 151.16 267.1 153.63 265.21 154.95C262.96 156.52 256.03 154.41 256.03 154.41C247.57 152.28 239.9 148.44 232.49 144.03L232.5 144.01Z" fill="white"/>
<path d="M249.61 108.83C258.48 108.83 265.67 101.64 265.67 92.77C265.67 83.9003 258.48 76.71 249.61 76.71C240.74 76.71 233.55 83.9003 233.55 92.77C233.55 101.64 240.74 108.83 249.61 108.83Z" fill="white"/>
<path d="M264.37 201.68C264.42 197.41 264.73 193.14 265.23 188.88C266.84 175.2 269.84 161.45 276.54 149.42C278.8 145.35 281.7 141.32 285.97 139.46C290.54 137.47 296.91 139.34 299.61 143.64C302.82 148.73 299.37 155.91 297.26 160.71C288.24 181.17 286.96 206.56 292.27 228.28C292.72 230.13 293.45 233.59 292.04 234.87C290.73 236.07 288.23 236.27 286.57 236.28C283.59 236.29 276.08 236.21 276.08 236.21C276.08 236.21 273.36 236.45 271.28 235.47C268.8 234.31 267.16 227.25 267.16 227.25C264.77 218.86 264.27 210.29 264.38 201.68H264.37Z" fill="white"/>
<path d="M317.3 206.94C326.17 206.94 333.36 199.75 333.36 190.88C333.36 182.01 326.17 174.82 317.3 174.82C308.43 174.82 301.24 182.01 301.24 190.88C301.24 199.75 308.43 206.94 317.3 206.94Z" fill="white"/>
<path d="M230.35 258.03C234.07 255.94 237.92 254.07 241.86 252.37C254.51 246.93 267.91 242.65 281.68 242.43C286.33 242.36 291.27 242.85 295.01 245.62C299.02 248.58 300.58 255.03 298.21 259.53C295.41 264.85 287.46 265.46 282.25 266.03C260.03 268.45 237.39 280.03 221.24 295.49C219.86 296.81 217.23 299.17 215.41 298.59C213.72 298.05 212.29 295.99 211.46 294.56C209.96 291.98 206.28 285.44 206.28 285.44C206.28 285.44 204.72 283.21 204.52 280.92C204.29 278.19 209.58 273.24 209.58 273.24C215.65 266.98 222.82 262.26 230.34 258.04L230.35 258.03Z" fill="white"/>
<path d="M266.17 314.53C275.04 314.53 282.23 307.34 282.23 298.47C282.23 289.6 275.04 282.41 266.17 282.41C257.3 282.41 250.11 289.6 250.11 298.47C250.11 307.34 257.3 314.53 266.17 314.53Z" fill="white"/>
<path d="M164.26 256.84C167.93 259.02 171.48 261.42 174.91 263.98C185.95 272.21 196.36 281.68 203.43 293.5C205.82 297.49 207.86 302.02 207.34 306.64C206.78 311.6 201.97 316.17 196.9 316.37C190.89 316.61 186.39 310.03 183.29 305.79C170.08 287.75 148.73 273.94 127.27 267.68C125.44 267.15 122.08 266.05 121.68 264.18C121.3 262.44 122.37 260.18 123.2 258.74C124.68 256.15 128.51 249.69 128.51 249.69C128.51 249.69 129.66 247.22 131.55 245.9C133.8 244.33 140.73 246.44 140.73 246.44C149.19 248.57 156.86 252.41 164.27 256.82L164.26 256.84Z" fill="white"/>
<path d="M147.15 324.14C156.02 324.14 163.21 316.95 163.21 308.08C163.21 299.21 156.02 292.02 147.15 292.02C138.28 292.02 131.09 299.21 131.09 308.08C131.09 316.95 138.28 324.14 147.15 324.14Z" fill="white"/>
<path d="M132.48 199.21C132.43 203.48 132.12 207.75 131.62 212.01C130.01 225.69 127.01 239.44 120.31 251.47C118.05 255.54 115.15 259.57 110.88 261.43C106.31 263.42 99.9399 261.55 97.2399 257.25C94.0299 252.16 97.4799 244.98 99.5899 240.18C108.61 219.72 109.89 194.33 104.58 172.61C104.13 170.76 103.4 167.3 104.81 166.02C106.12 164.82 108.62 164.62 110.28 164.61C113.26 164.6 120.77 164.68 120.77 164.68C120.77 164.68 123.49 164.44 125.57 165.42C128.05 166.58 129.69 173.64 129.69 173.64C132.08 182.03 132.58 190.6 132.47 199.21H132.48Z" fill="white"/>
<path d="M79.55 226.07C88.4197 226.07 95.61 218.88 95.61 210.01C95.61 201.14 88.4197 193.95 79.55 193.95C70.6803 193.95 63.49 201.14 63.49 210.01C63.49 218.88 70.6803 226.07 79.55 226.07Z" fill="white"/>
<path d="M461.8 250.6C450.067 250.6 439.987 248.253 431.56 243.56C423.24 238.76 416.84 232.04 412.36 223.4C407.88 214.653 405.64 204.36 405.64 192.52C405.64 183.667 406.92 175.72 409.48 168.68C412.04 161.533 415.72 155.453 420.52 150.44C425.32 145.32 431.187 141.427 438.12 138.76C445.16 135.987 453.053 134.6 461.8 134.6C467.667 134.6 473.427 135.347 479.08 136.84C484.733 138.333 489.693 140.467 493.96 143.24C496.2 144.627 497.693 146.333 498.44 148.36C499.187 150.28 499.347 152.2 498.92 154.12C498.493 155.933 497.587 157.48 496.2 158.76C494.92 160.04 493.267 160.787 491.24 161C489.32 161.107 487.187 160.413 484.84 158.92C481.533 156.787 477.96 155.24 474.12 154.28C470.28 153.32 466.387 152.84 462.44 152.84C454.867 152.84 448.467 154.387 443.24 157.48C438.013 160.573 434.067 165.053 431.4 170.92C428.733 176.787 427.4 183.987 427.4 192.52C427.4 200.947 428.733 208.147 431.4 214.12C434.067 220.093 438.013 224.627 443.24 227.72C448.467 230.813 454.867 232.36 462.44 232.36C466.493 232.36 470.493 231.88 474.44 230.92C478.387 229.853 482.12 228.253 485.64 226.12C487.987 224.733 490.067 224.147 491.88 224.36C493.8 224.467 495.4 225.107 496.68 226.28C497.96 227.453 498.813 228.947 499.24 230.76C499.667 232.467 499.56 234.28 498.92 236.2C498.28 238.013 497 239.613 495.08 241C490.813 244.093 485.693 246.493 479.72 248.2C473.853 249.8 467.88 250.6 461.8 250.6ZM546.205 250.6C538.098 250.6 531.058 248.947 525.085 245.64C519.112 242.333 514.472 237.64 511.165 231.56C507.858 225.373 506.205 218.12 506.205 209.8C506.205 203.507 507.112 197.907 508.925 193C510.845 187.987 513.565 183.72 517.085 180.2C520.605 176.573 524.818 173.853 529.725 172.04C534.632 170.12 540.125 169.16 546.205 169.16C554.312 169.16 561.352 170.813 567.325 174.12C573.298 177.427 577.938 182.12 581.245 188.2C584.552 194.28 586.205 201.48 586.205 209.8C586.205 216.093 585.245 221.747 583.325 226.76C581.512 231.773 578.845 236.093 575.325 239.72C571.805 243.24 567.592 245.96 562.685 247.88C557.778 249.693 552.285 250.6 546.205 250.6ZM546.205 235.4C550.152 235.4 553.618 234.44 556.605 232.52C559.592 230.6 561.885 227.773 563.485 224.04C565.192 220.2 566.045 215.453 566.045 209.8C566.045 201.267 564.232 194.92 560.605 190.76C556.978 186.493 552.178 184.36 546.205 184.36C542.258 184.36 538.792 185.32 535.805 187.24C532.818 189.053 530.472 191.88 528.765 195.72C527.165 199.453 526.365 204.147 526.365 209.8C526.365 218.227 528.178 224.627 531.805 229C535.432 233.267 540.232 235.4 546.205 235.4ZM629.433 250.6C620.579 250.6 613.913 248.093 609.433 243.08C604.953 237.96 602.713 230.493 602.713 220.68V145C602.713 141.693 603.566 139.187 605.273 137.48C606.979 135.773 609.433 134.92 612.633 134.92C615.833 134.92 618.286 135.773 619.993 137.48C621.806 139.187 622.713 141.693 622.713 145V219.72C622.713 224.627 623.726 228.253 625.753 230.6C627.886 232.947 630.873 234.12 634.713 234.12C635.566 234.12 636.366 234.12 637.113 234.12C637.859 234.013 638.606 233.907 639.352 233.8C640.846 233.587 641.859 234.013 642.393 235.08C642.926 236.04 643.193 238.067 643.193 241.16C643.193 243.827 642.659 245.907 641.593 247.4C640.526 248.893 638.766 249.8 636.313 250.12C635.246 250.227 634.126 250.333 632.953 250.44C631.779 250.547 630.606 250.6 629.433 250.6ZM680.526 250.6C671.673 250.6 665.006 248.093 660.526 243.08C656.046 237.96 653.806 230.493 653.806 220.68V145C653.806 141.693 654.66 139.187 656.366 137.48C658.073 135.773 660.526 134.92 663.726 134.92C666.926 134.92 669.38 135.773 671.086 137.48C672.9 139.187 673.806 141.693 673.806 145V219.72C673.806 224.627 674.82 228.253 676.846 230.6C678.98 232.947 681.966 234.12 685.806 234.12C686.66 234.12 687.46 234.12 688.206 234.12C688.953 234.013 689.7 233.907 690.446 233.8C691.94 233.587 692.953 234.013 693.486 235.08C694.02 236.04 694.286 238.067 694.286 241.16C694.286 243.827 693.753 245.907 692.686 247.4C691.62 248.893 689.86 249.8 687.406 250.12C686.34 250.227 685.22 250.333 684.046 250.44C682.873 250.547 681.7 250.6 680.526 250.6ZM730.66 250.6C725.007 250.6 719.94 249.533 715.46 247.4C711.087 245.16 707.62 242.173 705.06 238.44C702.607 234.707 701.38 230.493 701.38 225.8C701.38 220.04 702.873 215.507 705.86 212.2C708.847 208.787 713.7 206.333 720.42 204.84C727.14 203.347 736.153 202.6 747.46 202.6H755.46V214.12H747.62C741.007 214.12 735.727 214.44 731.78 215.08C727.833 215.72 725.007 216.84 723.3 218.44C721.7 219.933 720.9 222.067 720.9 224.84C720.9 228.36 722.127 231.24 724.58 233.48C727.033 235.72 730.447 236.84 734.82 236.84C738.34 236.84 741.433 236.04 744.1 234.44C746.873 232.733 749.06 230.44 750.66 227.56C752.26 224.68 753.06 221.373 753.06 217.64V199.24C753.06 193.907 751.887 190.067 749.54 187.72C747.193 185.373 743.247 184.2 737.7 184.2C734.607 184.2 731.247 184.573 727.62 185.32C724.1 186.067 720.367 187.347 716.42 189.16C714.393 190.12 712.58 190.387 710.98 189.96C709.487 189.533 708.313 188.68 707.46 187.4C706.607 186.013 706.18 184.52 706.18 182.92C706.18 181.32 706.607 179.773 707.46 178.28C708.313 176.68 709.753 175.507 711.78 174.76C716.687 172.733 721.38 171.293 725.86 170.44C730.447 169.587 734.607 169.16 738.34 169.16C746.02 169.16 752.313 170.333 757.22 172.68C762.233 175.027 765.967 178.6 768.42 183.4C770.873 188.093 772.1 194.173 772.1 201.64V240.04C772.1 243.347 771.3 245.907 769.7 247.72C768.1 249.427 765.807 250.28 762.82 250.28C759.833 250.28 757.487 249.427 755.78 247.72C754.18 245.907 753.38 243.347 753.38 240.04V232.36H754.66C753.913 236.093 752.42 239.347 750.18 242.12C748.047 244.787 745.327 246.867 742.02 248.36C738.713 249.853 734.927 250.6 730.66 250.6ZM837.52 250.6C830.907 250.6 825.093 248.947 820.08 245.64C815.173 242.333 811.92 237.907 810.32 232.36L812.08 228.36V240.04C812.08 243.347 811.227 245.907 809.52 247.72C807.813 249.427 805.413 250.28 802.32 250.28C799.12 250.28 796.667 249.427 794.96 247.72C793.253 245.907 792.4 243.347 792.4 240.04V145C792.4 141.693 793.253 139.187 794.96 137.48C796.667 135.773 799.12 134.92 802.32 134.92C805.52 134.92 807.973 135.773 809.68 137.48C811.493 139.187 812.4 141.693 812.4 145V186.6H810.48C812.187 181.373 815.493 177.16 820.4 173.96C825.307 170.76 831.013 169.16 837.52 169.16C844.453 169.16 850.48 170.813 855.6 174.12C860.72 177.427 864.72 182.12 867.6 188.2C870.48 194.173 871.92 201.373 871.92 209.8C871.92 218.12 870.48 225.373 867.6 231.56C864.72 237.64 860.667 242.333 855.44 245.64C850.32 248.947 844.347 250.6 837.52 250.6ZM831.92 235.4C835.867 235.4 839.333 234.44 842.32 232.52C845.307 230.6 847.6 227.773 849.2 224.04C850.907 220.2 851.76 215.453 851.76 209.8C851.76 201.267 849.947 194.92 846.32 190.76C842.693 186.493 837.893 184.36 831.92 184.36C827.973 184.36 824.507 185.32 821.52 187.24C818.533 189.053 816.187 191.88 814.48 195.72C812.88 199.453 812.08 204.147 812.08 209.8C812.08 218.227 813.893 224.627 817.52 229C821.147 233.267 825.947 235.4 831.92 235.4ZM924.018 250.6C915.911 250.6 908.871 248.947 902.898 245.64C896.924 242.333 892.284 237.64 888.978 231.56C885.671 225.373 884.018 218.12 884.018 209.8C884.018 203.507 884.924 197.907 886.738 193C888.658 187.987 891.378 183.72 894.898 180.2C898.418 176.573 902.631 173.853 907.538 172.04C912.444 170.12 917.938 169.16 924.018 169.16C932.124 169.16 939.164 170.813 945.138 174.12C951.111 177.427 955.751 182.12 959.058 188.2C962.364 194.28 964.018 201.48 964.018 209.8C964.018 216.093 963.058 221.747 961.138 226.76C959.324 231.773 956.658 236.093 953.138 239.72C949.618 243.24 945.404 245.96 940.498 247.88C935.591 249.693 930.098 250.6 924.018 250.6ZM924.018 235.4C927.964 235.4 931.431 234.44 934.418 232.52C937.404 230.6 939.698 227.773 941.298 224.04C943.004 220.2 943.858 215.453 943.858 209.8C943.858 201.267 942.044 194.92 938.418 190.76C934.791 186.493 929.991 184.36 924.018 184.36C920.071 184.36 916.604 185.32 913.618 187.24C910.631 189.053 908.284 191.88 906.578 195.72C904.978 199.453 904.178 204.147 904.178 209.8C904.178 218.227 905.991 224.627 909.618 229C913.244 233.267 918.044 235.4 924.018 235.4ZM990.765 250.28C987.458 250.28 984.898 249.427 983.085 247.72C981.378 245.907 980.525 243.347 980.525 240.04V179.56C980.525 176.253 981.378 173.747 983.085 172.04C984.792 170.333 987.192 169.48 990.285 169.48C993.378 169.48 995.778 170.333 997.485 172.04C999.192 173.747 1000.05 176.253 1000.05 179.56V189.64H998.445C999.938 183.24 1002.87 178.387 1007.25 175.08C1011.62 171.773 1017.43 169.8 1024.69 169.16C1026.93 168.947 1028.69 169.533 1029.97 170.92C1031.35 172.2 1032.15 174.227 1032.37 177C1032.58 179.667 1031.94 181.853 1030.45 183.56C1029.06 185.16 1026.93 186.12 1024.05 186.44L1020.53 186.76C1014.02 187.4 1009.11 189.427 1005.81 192.84C1002.5 196.147 1000.85 200.84 1000.85 206.92V240.04C1000.85 243.347 999.992 245.907 998.285 247.72C996.578 249.427 994.072 250.28 990.765 250.28ZM1053.1 250.12C1049.9 250.12 1047.45 249.16 1045.74 247.24C1044.03 245.32 1043.18 242.653 1043.18 239.24V180.52C1043.18 177 1044.03 174.333 1045.74 172.52C1047.45 170.6 1049.9 169.64 1053.1 169.64C1056.3 169.64 1058.75 170.6 1060.46 172.52C1062.27 174.333 1063.18 177 1063.18 180.52V239.24C1063.18 242.653 1062.33 245.32 1060.62 247.24C1058.91 249.16 1056.41 250.12 1053.1 250.12ZM1053.1 154.76C1049.37 154.76 1046.43 153.853 1044.3 152.04C1042.27 150.12 1041.26 147.507 1041.26 144.2C1041.26 140.787 1042.27 138.173 1044.3 136.36C1046.43 134.547 1049.37 133.64 1053.1 133.64C1056.94 133.64 1059.87 134.547 1061.9 136.36C1063.93 138.173 1064.94 140.787 1064.94 144.2C1064.94 147.507 1063.93 150.12 1061.9 152.04C1059.87 153.853 1056.94 154.76 1053.1 154.76ZM1088.76 249C1086.74 249 1085.03 248.52 1083.64 247.56C1082.36 246.493 1081.51 245.16 1081.08 243.56C1080.66 241.96 1080.66 240.253 1081.08 238.44C1081.62 236.52 1082.63 234.707 1084.12 233L1125.56 181V185.8H1087.8C1085.35 185.8 1083.43 185.16 1082.04 183.88C1080.76 182.493 1080.12 180.627 1080.12 178.28C1080.12 175.827 1080.76 173.96 1082.04 172.68C1083.43 171.4 1085.35 170.76 1087.8 170.76H1135.16C1137.51 170.76 1139.43 171.293 1140.92 172.36C1142.42 173.32 1143.38 174.6 1143.8 176.2C1144.34 177.8 1144.39 179.507 1143.96 181.32C1143.54 183.133 1142.58 184.84 1141.08 186.44L1098.84 239.24V233.96H1138.84C1143.96 233.96 1146.52 236.467 1146.52 241.48C1146.52 243.827 1145.83 245.693 1144.44 247.08C1143.16 248.36 1141.3 249 1138.84 249H1088.76ZM1196.74 250.6C1187.89 250.6 1180.26 248.947 1173.86 245.64C1167.46 242.333 1162.5 237.64 1158.98 231.56C1155.57 225.48 1153.86 218.28 1153.86 209.96C1153.86 201.853 1155.51 194.76 1158.82 188.68C1162.23 182.6 1166.87 177.853 1172.74 174.44C1178.71 170.92 1185.49 169.16 1193.06 169.16C1198.61 169.16 1203.57 170.067 1207.94 171.88C1212.42 173.693 1216.21 176.307 1219.3 179.72C1222.5 183.133 1224.9 187.293 1226.5 192.2C1228.21 197 1229.06 202.44 1229.06 208.52C1229.06 210.44 1228.37 211.933 1226.98 213C1225.7 213.96 1223.83 214.44 1221.38 214.44H1170.02V202.92H1214.98L1212.42 205.32C1212.42 200.413 1211.67 196.307 1210.18 193C1208.79 189.693 1206.71 187.187 1203.94 185.48C1201.27 183.667 1197.91 182.76 1193.86 182.76C1189.38 182.76 1185.54 183.827 1182.34 185.96C1179.25 187.987 1176.85 190.92 1175.14 194.76C1173.54 198.493 1172.74 202.973 1172.74 208.2V209.32C1172.74 218.067 1174.77 224.627 1178.82 229C1182.98 233.267 1189.06 235.4 1197.06 235.4C1199.83 235.4 1202.93 235.08 1206.34 234.44C1209.86 233.693 1213.17 232.467 1216.26 230.76C1218.5 229.48 1220.47 228.947 1222.18 229.16C1223.89 229.267 1225.22 229.853 1226.18 230.92C1227.25 231.987 1227.89 233.32 1228.1 234.92C1228.31 236.413 1227.99 237.96 1227.14 239.56C1226.39 241.16 1225.06 242.547 1223.14 243.72C1219.41 246.067 1215.09 247.827 1210.18 249C1205.38 250.067 1200.9 250.6 1196.74 250.6Z" fill="white"/>
</svg>
